IKResults
version=1
nRows=24
nColumns=24
inDegrees=yes

Units are S.I. units (second, meters, Newtons, ...)
If the header above contains a line with 'inDegrees', this indicates whether rotational values are in degrees (yes) or radians (no).

endheader
time	pelvis_tilt	pelvis_list	pelvis_rotation	pelvis_tx	pelvis_ty	pelvis_tz	hip_flexion_r	hip_adduction_r	hip_rotation_r	knee_angle_r	ankle_angle_r	subtalar_angle_r	mtp_angle_r	hip_flexion_l	hip_adduction_l	hip_rotation_l	knee_angle_l	ankle_angle_l	subtalar_angle_l	mtp_angle_l	lumbar_extension	lumbar_bending	lumbar_rotation
4.050000	7.301118	5.523537	-179.944517	0.308265	0.337658	-1.206913	100.509474	-35.418688	2.477344	-140.225071	44.947116	11.817614	0.000000	112.919385	-35.838127	20.560780	-140.207172	45.034242	25.046781	0.000000	-19.329959	5.700165	6.490691
4.055000	7.301188	5.527879	-179.947770	0.308274	0.337664	-1.206841	100.514093	-35.421268	2.485271	-140.217637	44.946229	11.818735	0.000000	112.923161	-35.844569	20.556599	-140.210557	45.033481	25.045846	0.000000	-19.338064	5.712978	6.496131
4.060000	7.285971	5.528987	-179.950046	0.308313	0.337686	-1.206872	100.495531	-35.409726	2.483243	-140.212417	44.924315	11.832149	0.000000	112.911599	-35.860659	20.554900	-140.202280	45.035132	25.057239	0.000000	-19.361730	5.702656	6.525410
4.065000	7.286093	5.530223	-179.945797	0.308339	0.337683	-1.206870	100.495881	-35.408642	2.484482	-140.208665	44.923282	11.832548	0.000000	112.916914	-35.862373	20.550427	-140.195425	45.035713	25.059873	0.000000	-19.368600	5.703111	6.525809
4.070000	7.303996	5.526633	-179.948434	0.308379	0.337717	-1.206753	100.525389	-35.406894	2.509947	-140.190251	44.887858	11.843854	0.000000	112.928050	-35.862834	20.518509	-140.199306	45.018050	25.089220	0.000000	-19.361463	5.711646	6.536487
4.075000	7.310316	5.529831	-179.952883	0.308431	0.337816	-1.206663	100.530456	-35.402931	2.501633	-140.173695	44.883975	11.842456	0.000000	112.926180	-35.861207	20.502357	-140.192344	45.016656	25.087052	0.000000	-19.373041	5.722211	6.540259
4.080000	7.318517	5.536655	-179.956169	0.308484	0.337923	-1.206584	100.530242	-35.392109	2.502941	-140.154041	44.875718	11.838467	0.000000	112.923120	-35.858592	20.487045	-140.188130	45.012918	25.081556	0.000000	-19.382343	5.734892	6.546317
4.085000	7.322944	5.536874	-179.952726	0.308546	0.337993	-1.206616	100.526499	-35.380684	2.497717	-140.139444	44.863926	11.837506	0.000000	112.920932	-35.856957	20.475120	-140.169803	45.007873	25.078458	0.000000	-19.390409	5.727737	6.548426
4.090000	7.310671	5.510076	-179.930055	0.308600	0.338023	-1.206722	100.529331	-35.374749	2.527074	-140.136063	44.850248	11.794523	0.000000	112.893965	-35.862436	20.436834	-140.140638	44.963868	25.097126	0.000000	-19.413910	5.677741	6.525576
4.095000	7.319362	5.511053	-179.923473	0.308653	0.338073	-1.206737	100.526111	-35.364737	2.525263	-140.120431	44.849806	11.795317	0.000000	112.894237	-35.855874	20.422065	-140.124182	44.964973	25.100516	0.000000	-19.417302	5.668553	6.526381
4.100000	7.488874	5.381535	-179.959897	0.308900	0.337832	-1.206616	100.882355	-35.295658	2.727343	-140.107088	44.756373	11.712429	0.000000	112.968736	-35.874012	20.205633	-140.119152	44.946358	25.030966	0.000000	-19.252233	5.529622	6.501753
4.105000	7.383791	5.476710	-179.943685	0.308778	0.338248	-1.206373	100.644820	-35.352585	2.593381	-140.068229	44.743807	11.718177	0.000000	112.887513	-35.851866	20.285547	-140.121804	44.946319	24.972968	0.000000	-19.382946	5.668566	6.530143
4.110000	7.395619	5.479074	-179.946388	0.308807	0.338346	-1.206332	100.641794	-35.353492	2.578277	-140.049087	44.745275	11.716426	0.000000	112.884903	-35.857139	20.265358	-140.115310	44.939570	24.976156	0.000000	-19.381104	5.673583	6.538517
4.115000	7.418418	5.460126	-179.924689	0.308885	0.338388	-1.206427	100.664045	-35.357579	2.586633	-140.036113	44.765182	11.696168	0.000000	112.884107	-35.848276	20.225654	-140.076908	44.933329	25.019490	0.000000	-19.365698	5.632603	6.527763
4.120000	7.428070	5.455213	-179.911980	0.308936	0.338480	-1.206525	100.655904	-35.353355	2.576769	-140.021410	44.758689	11.700573	0.000000	112.879951	-35.849969	20.209649	-140.041805	44.931762	25.025240	0.000000	-19.364939	5.609791	6.519412
4.125000	7.500551	5.374369	-179.926079	0.309054	0.338430	-1.206573	100.826654	-35.313332	2.688966	-140.014472	44.736385	11.691928	0.000000	112.896495	-35.882078	20.092721	-140.018279	44.889306	25.034532	0.000000	-19.294408	5.500814	6.521525
4.130000	7.500465	5.381125	-179.921892	0.309070	0.338590	-1.206465	100.813517	-35.329340	2.680971	-139.991188	44.710317	11.698703	0.000000	112.874121	-35.881526	20.059876	-140.011246	44.907712	25.012681	0.000000	-19.308777	5.518377	6.536759
4.135000	7.510249	5.385413	-179.929492	0.309097	0.338724	-1.206371	100.805214	-35.330933	2.675620	-139.967228	44.708000	11.699383	0.000000	112.867865	-35.892791	20.036060	-140.009442	44.900869	25.008301	0.000000	-19.309884	5.534909	6.535087
4.140000	7.435289	5.441764	-179.910543	0.309051	0.339028	-1.206283	100.630637	-35.378996	2.578442	-139.933495	44.692586	11.729002	0.000000	112.801372	-35.887478	20.078616	-139.997720	44.889998	24.991424	0.000000	-19.406044	5.612514	6.557378
4.145000	7.507246	5.380855	-179.928123	0.309206	0.338946	-1.206387	100.765164	-35.338438	2.652203	-139.924126	44.688427	11.732511	0.000000	112.840419	-35.919060	19.996388	-139.970046	44.859840	25.010936	0.000000	-19.337847	5.527974	6.564227
4.150000	7.516571	5.376956	-179.924860	0.309235	0.339044	-1.206407	100.757647	-35.341627	2.632819	-139.902815	44.682220	11.740039	0.000000	112.835265	-35.931484	19.973075	-139.942095	44.858054	25.014018	0.000000	-19.336819	5.521645	6.562876
4.155000	7.467449	5.413552	-179.883596	0.309148	0.339293	-1.206310	100.648085	-35.411561	2.588375	-139.883395	44.663925	11.753725	0.000000	112.784227	-35.913057	19.982363	-139.922307	44.841055	25.033402	0.000000	-19.387546	5.574599	6.575034
4.160000	7.479045	5.414252	-179.890874	0.309178	0.339428	-1.206264	100.641737	-35.414006	2.566202	-139.859582	44.660065	11.762370	0.000000	112.782367	-35.928186	19.956512	-139.909930	44.842361	25.040226	0.000000	-19.392146	5.581249	6.575072
4.165000	7.485244	5.411784	-179.885467	0.309194	0.339538	-1.206326	100.632115	-35.423889	2.547413	-139.843499	44.659236	11.770332	0.000000	112.779052	-35.943913	19.942682	-139.880926	44.836004	25.046080	0.000000	-19.390942	5.564481	6.575748
